<svg xmlns="http://www.w3.org/2000/svg" width="200" height="50" viewBox="0 0 200 50" fill="white">
<path d="M92.9039 26.2009V26.5284H85.262L83.7336 22.5983H72.7074L71.179 26.5284H63.5371V26.2009L74.4541 0.655022H81.9869L92.9039 26.2009ZM81.5502 16.7031L78.2751 8.18777L75 16.7031H81.5502Z" fill="#121212"/>
<path d="M118.341 11.5721V22.2707C115.721 25.3275 111.79 27.0742 106.878 27.0742C97.4891 27.0742 92.2489 20.8515 92.2489 13.5371C92.2489 6.11354 97.7074 0 106.223 0C111.79 0 116.048 2.62009 117.904 6.76856L111.9 9.82533C111.026 8.0786 109.389 6.44105 106.223 6.44105C101.965 6.44105 99.4542 9.27948 99.4542 13.6463C99.4542 17.7948 101.856 20.8515 107.096 20.8515C108.952 20.8515 110.48 20.524 111.9 19.5415V17.1397H106.441V11.5721H118.341Z" fill="#121212"/>
<path d="M148.362 26.2009V26.5284H140.721L139.192 22.5983H128.166L126.638 26.5284H118.996V26.2009L129.913 0.655022H137.445L148.362 26.2009ZM136.9 16.7031L133.624 8.18777L130.349 16.7031H136.9Z" fill="#121212"/>
<path d="M171.725 20.1965V26.5284H150.218V0.545852H171.507V6.87773H157.314V10.4803H166.376V16.4847H157.314V20.1965H171.725Z" fill="#121212"/>
<path d="M199.454 26.2009V26.5284H191.594L186.135 18.8865L180.677 26.5284H172.817V26.2009L181.987 13.2096L173.362 0.982533V0.545852H181.114L186.026 7.42358L190.939 0.545852H198.69V0.873363L190.065 13.1004L199.454 26.2009Z" fill="#121212"/>
<path d="M64.083 45.3057L65.2838 43.3406C66.4847 44.4323 68.1223 44.9782 70.0873 44.9782C72.1616 44.9782 73.3624 44.214 73.3624 43.1223C73.3624 42.2489 72.7074 42.0306 69.6507 41.7031C67.0306 41.3755 64.3013 40.9389 64.3013 38.1004C64.3013 35.5895 66.4847 33.952 69.7598 33.952C72.5983 33.952 74.4541 35.262 75.2183 36.8996L73.2533 37.9913C72.8166 36.8996 71.7249 36.2445 69.6507 36.2445C67.5764 36.2445 66.7031 37.0087 66.7031 38.1004C66.7031 38.9738 67.4672 39.3013 70.0873 39.6288C72.9258 39.9563 75.7642 40.2838 75.7642 43.2314C75.7642 45.9607 73.2533 47.3799 70.0873 47.3799C67.7948 47.0524 65.7205 46.6157 64.083 45.3057Z" fill="#00ABB9"/>
<path d="M94.869 44.6507V46.9432H84.607V34.0611H94.7598V36.3537H87.0087V39.4105H91.9214V41.5939H87.0087V44.6507H94.869Z" fill="#00ABB9"/>
<path d="M115.611 46.7249V46.8341H113.1L109.934 42.1397H106.114V46.8341H103.712V34.0611H110.59C112.991 34.0611 114.956 35.6987 114.956 38.1004C114.956 39.8472 113.865 41.2664 112.336 41.8122L115.611 46.7249ZM106.114 40.0655H110.371C111.572 40.0655 112.555 39.3013 112.555 38.1004C112.555 36.8996 111.572 36.1354 110.371 36.1354H106.114V40.0655Z" fill="#00ABB9"/>
<path d="M122.489 34.1703V34.0611H125L127.729 43.4498L130.786 34.4978H132.642L135.808 43.4498L138.537 34.0611H141.048V34.1703L137.009 46.8341H134.825L131.769 37.9913L128.712 46.8341H126.528L122.489 34.1703Z" fill="#00ABB9"/>
<path d="M151.747 34.0611V46.9432H149.345V34.0611H151.747Z" fill="#00ABB9"/>
<path d="M160.59 45.3057L161.79 43.3406C162.991 44.4323 164.629 44.9782 166.594 44.9782C168.668 44.9782 169.869 44.214 169.869 43.1223C169.869 42.2489 169.214 42.0306 166.157 41.7031C163.537 41.3755 160.808 40.9389 160.808 38.1004C160.808 35.5895 162.991 33.952 166.266 33.952C169.105 33.952 170.961 35.262 171.725 36.8996L169.76 37.9913C169.323 36.8996 168.231 36.2445 166.157 36.2445C164.083 36.2445 163.21 37.0087 163.21 38.1004C163.21 38.9738 163.974 39.3013 166.594 39.6288C169.432 39.9563 172.271 40.2838 172.271 43.2314C172.271 45.9607 169.76 47.3799 166.594 47.3799C164.192 47.0524 162.227 46.6157 160.59 45.3057Z" fill="#00ABB9"/>
<path d="M21.0699 7.64192H24.6725V18.4498H21.0699V7.64192ZM24.5633 21.0699H18.3406V4.91266H27.2926V18.3406H30.8952V0.545852H9.9345L0 31.1135L18.3406 44.4323V24.6725H24.5633V21.0699ZM30.8952 27.2926H27.2926V38.1004H30.8952V27.2926ZM42.0306 0.545852H33.5153V21.0699H27.2926V24.6725H33.5153V40.8297H24.5633V27.2926H20.9607V46.3974L25.8734 50L51.8559 31.1135L42.0306 0.545852Z" fill="#00ABB9"/>
</svg>