
<svg xmlns="http://www.w3.org/2000/svg" width="53" height="48" viewBox="0 0 53 48" fill="none">
  <path d="M2.06685 25.7691C3.46991 34.8148 12.4047 38.0772 20.3853 37.251C29.8364 36.2766 39.8262 30.3873 44.6079 22.3161C46.6098 18.7189 47.2058 14.5715 46.2916 10.6011V10.6223C48.0202 21.6911 33.967 33.8721 21.3731 34.3488C9.83424 34.7937 6.60156 29.9742 6.59034 24.6993C6.97197 24.8476 7.37606 24.9959 7.79137 25.123C21.9792 29.4128 37.4579 18.8207 39.9385 9.90203C41.712 3.59969 37.8732 0.813941 31.8793 0.580913C25.818 0.358477 17.2873 2.48751 10.7771 9.90203C9.35158 11.565 11.1812 13.1221 12.5394 11.5015C18.118 5.2097 24.269 4.2564 27.6476 4.33055C30.5435 4.46824 31.666 7.29636 28.9609 10.8553C25.6496 15.2087 12.7975 19.5939 7.84749 15.7807C3.31277 12.2853 7.69035 6.30069 11.5853 2.89001C12.7863 1.83079 12.1353 1.37533 10.9342 2.14856C-0.43623 9.41479 -1.73828 17.9945 3.16685 22.5491C2.74032 23.5448 2.38113 24.6358 2.06685 25.7585M46.8304 10.3257L46.7855 10.3045C48.4579 15.2829 47.111 19.4668 45.461 22.6444C40.9711 31.3618 29.9711 38.0137 20.0149 39.1576C11.9445 40.0792 2.79644 37.8124 1.42705 28.9468C0.192345 37.9713 3.71686 48.5211 18.971 48.5211C32.5303 48.5211 45.1916 40.2592 50.6692 30.0484C51.0171 30.4932 51.5447 31.5525 51.8028 32.94C51.8477 33.1837 52.2518 33.1519 52.2855 32.8977C53.0039 28.7455 53.9467 17.6873 46.8304 10.3363" fill="#E30613"/>
</svg>



