<svg xmlns="http://www.w3.org/2000/svg" width="158" height="41" viewBox="0 0 158 41" fill="none">
  <path d="M28.1282 0.0957031H5.16278C4.56788 0.0957031 4.04032 0.477022 3.92808 1.049L0.0443806 31.8723C-0.0117421 32.4336 0.235199 32.6667 0.8301 32.6667H24.0761C24.7608 32.6667 25.1088 32.3383 25.1537 31.7769L25.7935 26.8516H8.70973L9.68627 19.0769H25.4343L26.119 13.4948H10.4046L11.3475 5.91081H28.4201L29.0262 1.12314C29.116 0.424061 28.8241 0.0957031 28.1282 0.0957031ZM46.514 7.5526C41.7773 7.5526 37.8936 8.25168 34.0099 9.60748C33.516 9.79814 33.168 10.0312 32.9211 10.4125C32.6741 10.7303 32.5844 11.2069 32.5282 11.6306L29.868 31.7346C29.8231 32.2959 30.0139 32.6667 30.6088 32.6667H37.2987L39.813 13.2194C41.3844 12.7534 43.113 12.372 44.7854 12.372C46.065 12.372 46.8059 12.6157 47.1426 13.0817C47.3895 13.3995 47.5355 13.9291 47.5355 14.4375C47.5355 14.8188 47.4906 15.6027 47.4344 16.0263L45.3691 32.6667H51.7222C52.463 32.6667 52.7998 32.2959 52.9008 31.7346L55.0671 16.0263C55.1682 15.179 55.2131 14.3952 55.2131 13.7808C55.2131 12.139 54.8763 10.5926 54.0345 9.7134C52.609 8.12458 49.7579 7.5526 46.514 7.5526ZM81.6357 9.79814C79.7163 8.20932 76.7642 7.54201 73.0152 7.54201C71.1519 7.54201 69.4795 7.78563 67.9978 8.19872C66.5723 8.62241 65.3488 9.23676 64.26 10.1265C62.4417 11.5776 61.207 13.6855 60.4212 16.1217C59.6839 18.5636 59.321 21.0925 59.3437 23.6315C59.3437 30.2411 63.7662 33.2704 70.4111 33.2704C73.756 33.2704 76.5622 32.8573 79.6601 31.957C80.2999 31.7769 80.6928 31.6392 80.9397 31.4062C81.1418 31.1626 81.1867 30.8448 81.1418 30.3682L80.5469 27.1375C77.8761 27.9584 75.0832 28.3696 72.2744 28.3556C70.7591 28.3556 68.4468 27.9849 67.5039 26.9893C66.6733 26.1101 66.5162 25.0297 66.5723 23.7057L69.3223 23.6209C75.6754 23.4303 79.6601 23.1973 82.2755 20.5704C83.5551 19.2676 83.8469 17.0644 83.8469 15.5179C83.8469 13.0288 83.2071 11.1116 81.6357 9.79814ZM70.6019 19.543L66.8192 19.6806C67.2121 17.2444 67.706 14.8082 69.2325 13.3677C70.1693 12.6032 71.3862 12.2154 72.6223 12.2873C74.003 12.2873 75.0356 12.6051 75.7652 13.2194C76.506 13.8761 76.8091 14.7659 76.8091 15.9416C76.8091 18.5685 74.7326 19.4053 70.6019 19.543ZM104.433 9.48038C104.483 9.13617 104.513 8.78964 104.523 8.44234C104.523 7.88096 104.231 7.5526 103.344 7.5526C99.5385 7.6418 95.7569 8.14652 92.0745 9.05669C91.1428 9.28972 90.649 9.51215 90.301 9.8511C89.9643 10.1795 89.7622 10.5926 89.7173 11.2599L87.102 31.6392C87.0122 32.3383 87.349 32.6667 87.9439 32.6667H93.3541C94.1398 32.6667 94.5439 32.1159 94.5888 31.5969L96.8562 13.2194C98.2228 12.9086 99.6263 12.7662 101.032 12.7957C102.12 12.7957 102.861 12.8487 103.939 12.9864L104.433 9.46979V9.48038ZM131.417 7.67971C130.238 7.57378 128.655 7.52082 126.781 7.52082C124.962 7.52082 123.099 7.57378 121.124 7.66911C116.892 7.90214 112.862 8.55886 110.494 10.243C108.182 11.9378 106.812 14.374 106.812 17.9329C106.787 18.8509 106.919 19.7667 107.205 20.6445C107.542 21.5872 108.137 22.3817 109.113 22.9854C109.845 23.419 110.644 23.7407 111.482 23.9387C109.708 24.0658 108.081 24.3942 107.048 25.1886C106.565 25.5169 106.161 26.036 105.869 26.6927C105.584 27.3669 105.431 28.085 105.42 28.8111C105.42 31.0567 107.351 32.2218 109.517 32.5502C109.708 32.6031 109.809 32.7408 109.809 32.8785C109.809 33.1645 109.663 33.2069 109.461 33.2598C108.485 33.4929 107.598 33.6306 106.857 33.8636C106.116 34.0542 105.376 34.372 104.938 34.7533C103.95 35.5477 103.456 36.6281 103.456 38.217C103.394 39.2146 103.699 40.2018 104.318 41.0122C104.938 41.8226 105.834 42.4066 106.857 42.6657C108.967 43.3648 111.729 43.566 114.187 43.566C118.665 43.566 122.459 43.2271 125.164 41.7336C127.825 40.3248 129.093 37.8886 129.093 34.5097C129.093 32.0311 128.218 30.7177 126.444 29.8386C124.76 28.9382 122.066 28.7476 118.957 28.7476H114.434C113.794 28.7476 113.446 28.6099 113.199 28.3768C112.952 28.1438 112.862 27.8578 112.862 27.3494C112.862 26.788 113.154 26.0783 113.693 25.6123C114.03 25.2839 114.681 25.0933 115.624 25.0933H119.743C121.124 25.0933 122.459 24.9132 123.683 24.5425C124.889 24.1898 126 23.5934 126.938 22.7948C127.815 22.0525 128.515 21.1425 128.991 20.1253C129.467 19.108 129.709 18.0069 129.699 16.8949C129.699 15.4438 128.958 13.7173 127.376 12.4886C127.332 12.4552 127.296 12.4133 127.271 12.3658C127.246 12.3183 127.232 12.2663 127.23 12.2132C127.23 12.0649 127.331 11.9695 127.567 11.9695C128.319 11.9695 130.182 12.1602 131.271 12.4886L132.101 8.41057C132.146 7.9551 132 7.72207 131.417 7.66911M113.648 33.2175H118.621C119.799 33.2175 120.484 33.3022 121.18 33.6835C121.763 34.1072 122.358 34.711 122.358 35.7384C122.358 37.2849 121.573 38.1746 120.383 38.736C119.204 39.2974 117.689 39.4457 115.814 39.4457C114.623 39.47 113.436 39.2905 112.312 38.9161C111.28 38.503 110.741 37.8039 110.741 36.6387C110.741 35.3677 111.919 33.8212 113.648 33.2175ZM121.169 20.2314C120.237 21.0259 119.148 21.2589 117.633 21.2589C116.308 21.2589 115.365 20.8882 114.827 20.1785C114.318 19.3434 114.08 18.3859 114.142 17.4245C114.142 15.5921 114.681 14.035 115.859 13.0605C116.701 12.3615 117.981 12.1284 119.305 12.1284C120.585 12.1284 121.472 12.3615 122.066 13.0076C122.605 13.5796 122.897 14.5117 122.897 15.8251C122.897 17.5198 122.358 19.1934 121.18 20.2314M155.235 8.53767C153.664 7.64793 151.194 7.45727 148.489 7.5526C145.38 7.60556 141.451 8.06102 138.353 8.82366C136.782 9.23676 136.232 9.46979 136.232 10.2642C136.232 10.4549 136.277 10.7832 136.333 11.0692L136.872 13.8761C140.419 12.9864 144.01 12.3297 146.413 12.3297C147.501 12.3297 148.433 12.4144 149.084 12.8063C149.668 13.0817 150.061 13.5054 150.061 14.3422C150.061 15.1472 149.971 15.931 149.87 16.736L143.225 17.7211C141.103 18.0071 138.645 18.3778 136.58 19.3099C135.252 19.9626 134.196 21.0187 133.583 22.3075C132.949 23.6677 132.642 25.1437 132.685 26.6291C132.685 29.5314 134.122 31.1626 136.131 32.0629C138.106 32.995 140.666 33.334 143.169 33.334C146.076 33.334 149.612 32.8573 152.62 32.0629C154.741 31.6392 155.628 30.3682 155.92 28.1226L157.469 15.984C157.559 15.0942 157.693 14.0986 157.693 13.2618C157.682 10.8785 156.851 9.38505 155.224 8.53767M148.433 28.1756C147.198 28.4933 145.773 28.684 144.594 28.684C142.529 28.684 140.273 28.6416 140.273 25.8771C140.273 22.8265 141.507 22.3075 144.65 21.6614L149.32 20.9517C148.534 27.6989 148.433 27.7413 148.433 28.1756Z" fill="#E30613"/>
</svg>